HIERARCHY
ROOT Hips
{
	OFFSET 0.000000 71.427986 0.000000
	CHANNELS 6 Xposition Yposition Zposition Xrotation Yrotation Zrotation
	JOINT Pelvis
	{
		OFFSET 0.000000 0.000000 0.000000
		CHANNELS 3 Xrotation Yrotation Zrotation
		JOINT LeftUpLeg
		{
			OFFSET 6.797100 -2.508499 -1.318700
			CHANNELS 3 Xrotation Yrotation Zrotation
			JOINT LeftLeg
			{
				OFFSET 0.069008 -29.241863 0.690200
				CHANNELS 3 Xrotation Yrotation Zrotation
				JOINT LeftFoot
				{
					OFFSET -0.069008 -29.568123 -0.266800
					CHANNELS 3 Xrotation Yrotation Zrotation
					JOINT LeftToeBase
					{
						OFFSET 3.145500 -8.631000 16.059900
						CHANNELS 3 Xrotation Yrotation Zrotation
						End Site
						{
							OFFSET 0.000000 18.501587 0.000000
						}
					}
				}
			}
			JOINT Left_ShortSleeve
			{
				OFFSET 0.265923 -10.480953 1.153800
				CHANNELS 3 Xrotation Yrotation Zrotation
				End Site
				{
					OFFSET 1.725763 19.823879 0.000000
				}
			}
		}
		JOINT RightUpLeg
		{
			OFFSET -6.797100 -2.508499 -1.318700
			CHANNELS 3 Xrotation Yrotation Zrotation
			JOINT RightLeg
			{
				OFFSET -0.082453 -29.241932 0.688000
				CHANNELS 3 Xrotation Yrotation Zrotation
				JOINT RightFoot
				{
					OFFSET 0.082453 -29.568058 -0.264600
					CHANNELS 3 Xrotation Yrotation Zrotation
					JOINT RightToeBase
					{
						OFFSET -3.115300 -8.682800 16.113400
						CHANNELS 3 Xrotation Yrotation Zrotation
						End Site
						{
							OFFSET 0.000000 18.567114 0.000000
						}
					}
				}
			}
			JOINT Right_ShortSleeve
			{
				OFFSET -0.265923 -10.480953 1.153800
				CHANNELS 3 Xrotation Yrotation Zrotation
				End Site
				{
					OFFSET -1.725766 19.823910 0.000000
				}
			}
		}
	}
	JOINT Spine
	{
		OFFSET 0.000000 13.368103 0.470500
		CHANNELS 3 Xrotation Yrotation Zrotation
		JOINT Spine1
		{
			OFFSET 0.147000 13.837402 0.538800
			CHANNELS 3 Xrotation Yrotation Zrotation
			JOINT Spine2
			{
				OFFSET 0.168000 16.242897 -1.435500
				CHANNELS 3 Xrotation Yrotation Zrotation
				JOINT Neck
				{
					OFFSET 0.217200 18.631500 -1.679100
					CHANNELS 3 Xrotation Yrotation Zrotation
					JOINT Head
					{
						OFFSET 0.000000 6.599396 1.385900
						CHANNELS 3 Xrotation Yrotation Zrotation
						JOINT Hat
						{
							OFFSET -0.532200 27.220596 -10.096100
							CHANNELS 3 Xrotation Yrotation Zrotation
							End Site
							{
								OFFSET 0.000000 22.029861 0.000000
							}
						}
						JOINT HairD
						{
							OFFSET -10.777400 17.437393 -1.325900
							CHANNELS 3 Xrotation Yrotation Zrotation
							JOINT HairD1
							{
								OFFSET -3.290299 -11.051193 1.062200
								CHANNELS 3 Xrotation Yrotation Zrotation
								End Site
								{
									OFFSET 0.000000 11.579437 0.000000
								}
							}
						}
						JOINT HairB
						{
							OFFSET -10.777400 17.437393 1.467900
							CHANNELS 3 Xrotation Yrotation Zrotation
							JOINT HairB1
							{
								OFFSET -1.561200 -12.956299 3.590200
								CHANNELS 3 Xrotation Yrotation Zrotation
								End Site
								{
									OFFSET 0.000000 13.534866 0.000000
								}
							}
						}
						JOINT HairA
						{
							OFFSET 9.713100 17.437393 1.467900
							CHANNELS 3 Xrotation Yrotation Zrotation
							JOINT HairA1
							{
								OFFSET 1.561200 -12.956299 3.590200
								CHANNELS 3 Xrotation Yrotation Zrotation
								End Site
								{
									OFFSET 0.000000 13.534866 0.000000
								}
							}
						}
						JOINT HairC
						{
							OFFSET 9.713100 17.437393 -1.325900
							CHANNELS 3 Xrotation Yrotation Zrotation
							JOINT HairC1
							{
								OFFSET 3.290300 -11.051193 1.062200
								CHANNELS 3 Xrotation Yrotation Zrotation
								End Site
								{
									OFFSET 0.000000 11.579437 0.000000
								}
							}
						}
					}
				}
				JOINT LeftShoulder
				{
					OFFSET 5.101800 15.108002 -2.763700
					CHANNELS 3 Xrotation Yrotation Zrotation
					JOINT LeftArm
					{
						OFFSET 9.825497 2.506317 -1.597400
						CHANNELS 3 Xrotation Yrotation Zrotation
						JOINT LeftForeArm
						{
							OFFSET 21.966244 0.000000 0.000000
							CHANNELS 3 Xrotation Yrotation Zrotation
							JOINT LeftHand
							{
								OFFSET 33.879036 0.000000 0.000000
								CHANNELS 3 Xrotation Yrotation Zrotation
								JOINT LeftHandThumb1
								{
									OFFSET 6.715286 -2.359680 3.363841
									CHANNELS 3 Xrotation Yrotation Zrotation
									JOINT LeftHandThumb2
									{
										OFFSET 2.507072 -1.447464 1.447461
										CHANNELS 3 Xrotation Yrotation Zrotation
										JOINT LeftHandThumb3
										{
											OFFSET 2.898338 -1.673355 1.673357
											CHANNELS 3 Xrotation Yrotation Zrotation
											End Site
											{
												OFFSET -0.295959 3.727692 -0.131651
											}
										}
									}
								}
								JOINT LeftHandIndex1
								{
									OFFSET 14.190811 -0.254547 3.840278
									CHANNELS 3 Xrotation Yrotation Zrotation
									JOINT LeftHandIndex2
									{
										OFFSET 3.551727 0.000000 -0.000000
										CHANNELS 3 Xrotation Yrotation Zrotation
										JOINT LeftHandIndex3
										{
											OFFSET 2.894196 0.000000 0.000000
											CHANNELS 3 Xrotation Yrotation Zrotation
											End Site
											{
												OFFSET -1.000603 2.690872 0.366626
											}
										}
									}
								}
								JOINT LeftHandMiddle1
								{
									OFFSET 13.776489 0.000000 0.000000
									CHANNELS 3 Xrotation Yrotation Zrotation
									JOINT LeftHandMiddle2
									{
										OFFSET 3.438232 0.000000 0.000000
										CHANNELS 3 Xrotation Yrotation Zrotation
										JOINT LeftHandMiddle3
										{
											OFFSET 3.691551 0.000000 0.000000
											CHANNELS 3 Xrotation Yrotation Zrotation
											End Site
											{
												OFFSET -1.082298 3.499527 0.457670
											}
										}
									}
								}
								JOINT LeftHandRing1
								{
									OFFSET 13.966164 -0.268127 -3.067488
									CHANNELS 3 Xrotation Yrotation Zrotation
									JOINT LeftHandRing2
									{
										OFFSET 3.162567 0.000000 0.000000
										CHANNELS 3 Xrotation Yrotation Zrotation
										JOINT LeftHandRing3
										{
											OFFSET 3.324348 0.000000 0.000000
											CHANNELS 3 Xrotation Yrotation Zrotation
											End Site
											{
												OFFSET -0.861900 3.184998 0.405154
											}
										}
									}
								}
								JOINT LeftHandPinky1
								{
									OFFSET 13.131393 -0.168503 -5.746925
									CHANNELS 3 Xrotation Yrotation Zrotation
									JOINT LeftHandPinky2
									{
										OFFSET 2.849182 0.000000 0.000000
										CHANNELS 3 Xrotation Yrotation Zrotation
										JOINT LeftHandPinky3
										{
											OFFSET 2.805038 0.000000 0.000000
											CHANNELS 3 Xrotation Yrotation Zrotation
											End Site
											{
												OFFSET -0.882500 2.642609 0.325652
											}
										}
									}
								}
							}
							JOINT Left_Sleeve
							{
								OFFSET 6.592125 -0.646545 0.805568
								CHANNELS 3 Xrotation Yrotation Zrotation
								End Site
								{
									OFFSET -0.000179 20.275787 -0.000000
								}
							}
						}
					}
				}
				JOINT RightShoulder
				{
					OFFSET -5.731700 15.108002 -2.763700
					CHANNELS 3 Xrotation Yrotation Zrotation
					JOINT RightArm
					{
						OFFSET -9.825497 2.506317 -1.597400
						CHANNELS 3 Xrotation Yrotation Zrotation
						JOINT RightForeArm
						{
							OFFSET -21.966242 0.000000 0.000000
							CHANNELS 3 Xrotation Yrotation Zrotation
							JOINT RightHand
							{
								OFFSET -33.879032 0.000000 0.000000
								CHANNELS 3 Xrotation Yrotation Zrotation
								JOINT RightHandThumb1
								{
									OFFSET -6.715286 -2.359680 3.363841
									CHANNELS 3 Xrotation Yrotation Zrotation
									JOINT RightHandThumb2
									{
										OFFSET -2.507072 -1.447464 1.447461
										CHANNELS 3 Xrotation Yrotation Zrotation
										JOINT RightHandThumb3
										{
											OFFSET -2.898338 -1.673355 1.673357
											CHANNELS 3 Xrotation Yrotation Zrotation
											End Site
											{
												OFFSET 0.295959 3.727692 -0.131651
											}
										}
									}
								}
								JOINT RightHandIndex1
								{
									OFFSET -14.190811 -0.254547 3.840278
									CHANNELS 3 Xrotation Yrotation Zrotation
									JOINT RightHandIndex2
									{
										OFFSET -3.551727 0.000000 -0.000000
										CHANNELS 3 Xrotation Yrotation Zrotation
										JOINT RightHandIndex3
										{
											OFFSET -2.894196 0.000000 0.000000
											CHANNELS 3 Xrotation Yrotation Zrotation
											End Site
											{
												OFFSET 1.000603 2.690872 0.366626
											}
										}
									}
								}
								JOINT RightHandMiddle1
								{
									OFFSET -13.776489 0.000000 0.000000
									CHANNELS 3 Xrotation Yrotation Zrotation
									JOINT RightHandMiddle2
									{
										OFFSET -3.438232 0.000000 0.000000
										CHANNELS 3 Xrotation Yrotation Zrotation
										JOINT RightHandMiddle3
										{
											OFFSET -3.691551 0.000000 0.000000
											CHANNELS 3 Xrotation Yrotation Zrotation
											End Site
											{
												OFFSET 1.082298 3.499527 0.457670
											}
										}
									}
								}
								JOINT RightHandRing1
								{
									OFFSET -13.966164 -0.268127 -3.067488
									CHANNELS 3 Xrotation Yrotation Zrotation
									JOINT RightHandRing2
									{
										OFFSET -3.162567 0.000000 0.000000
										CHANNELS 3 Xrotation Yrotation Zrotation
										JOINT RightHandRing3
										{
											OFFSET -3.324348 0.000000 0.000000
											CHANNELS 3 Xrotation Yrotation Zrotation
											End Site
											{
												OFFSET 0.861900 3.184998 0.405154
											}
										}
									}
								}
								JOINT RightHandPinky1
								{
									OFFSET -13.131393 -0.168503 -5.746925
									CHANNELS 3 Xrotation Yrotation Zrotation
									JOINT RightHandPinky2
									{
										OFFSET -2.849182 0.000000 0.000000
										CHANNELS 3 Xrotation Yrotation Zrotation
										JOINT RightHandPinky3
										{
											OFFSET -2.805038 0.000000 0.000000
											CHANNELS 3 Xrotation Yrotation Zrotation
											End Site
											{
												OFFSET 0.882500 2.642609 0.325652
											}
										}
									}
								}
							}
							JOINT Right_Sleeve
							{
								OFFSET -6.592125 -0.646545 0.805568
								CHANNELS 3 Xrotation Yrotation Zrotation
								End Site
								{
									OFFSET 0.000179 20.275787 -0.000000
								}
							}
						}
					}
				}
				JOINT Bind_Right_JacketString
				{
					OFFSET -3.534800 11.969597 7.200700
					CHANNELS 3 Xrotation Yrotation Zrotation
					JOINT Bind_Right_JacketString1
					{
						OFFSET -0.319900 -6.102600 2.794100
						CHANNELS 3 Xrotation Yrotation Zrotation
						End Site
						{
							OFFSET 0.000000 6.719452 0.000000
						}
					}
				}
				JOINT Bind_Left_JacketString
				{
					OFFSET 2.904800 11.969597 7.200700
					CHANNELS 3 Xrotation Yrotation Zrotation
					JOINT Bind_Left_JacketString1
					{
						OFFSET 0.364800 -5.904503 3.186800
						CHANNELS 3 Xrotation Yrotation Zrotation
						End Site
						{
							OFFSET 0.000000 6.719513 0.000000
						}
					}
				}
				JOINT HairE
				{
					OFFSET 5.915200 17.612701 -11.592200
					CHANNELS 3 Xrotation Yrotation Zrotation
					JOINT HairE1
					{
						OFFSET 0.289200 -7.171898 -1.284500
						CHANNELS 3 Xrotation Yrotation Zrotation
						End Site
						{
							OFFSET 0.000000 7.291756 0.000000
						}
					}
				}
				JOINT HairF
				{
					OFFSET -0.864800 17.612701 -11.592200
					CHANNELS 3 Xrotation Yrotation Zrotation
					JOINT HairF1
					{
						OFFSET 0.000000 -14.087097 -2.127501
						CHANNELS 3 Xrotation Yrotation Zrotation
						End Site
						{
							OFFSET 0.000000 14.246841 0.000000
						}
					}
				}
				JOINT HairG
				{
					OFFSET -8.087700 17.612701 -11.592200
					CHANNELS 3 Xrotation Yrotation Zrotation
					JOINT HairG1
					{
						OFFSET -0.293600 -6.081398 -0.910100
						CHANNELS 3 Xrotation Yrotation Zrotation
						End Site
						{
							OFFSET 0.000000 6.156120 0.000000
						}
					}
				}
			}
		}
	}
	JOINT Pouch
	{
		OFFSET 0.000000 4.394501 10.847300
		CHANNELS 3 Xrotation Yrotation Zrotation
		End Site
		{
			OFFSET 0.000000 21.880577 0.000000
		}
	}
	JOINT Bag
	{
		OFFSET -13.229000 4.813004 -0.593300
		CHANNELS 3 Xrotation Yrotation Zrotation
		End Site
		{
			OFFSET 0.000000 21.880577 0.000000
		}
	}
	JOINT OccupyGuyFacialAnim_Joint
	{
		OFFSET 1.000000 -70.206398 -1.655000
		CHANNELS 3 Xrotation Yrotation Zrotation
		End Site
		{
			OFFSET 0.000000 21.880577 0.000000
		}
	}
}
MOTION
Frames: 4
Frame Time: 0.033333
0.054753 64.774673 1.202827 5.691140 14.641409 -5.182826 0.000001 -0.000001 -0.000000 -45.059178 14.507255 22.369635 114.652812 -7.466465 -10.203078 18.514138 5.166356 21.936595 0.000000 0.000000 -0.000002 -0.000003 0.000000 -0.000001 -24.894802 -9.513859 13.824124 53.007729 15.167540 -9.736692 -27.618778 1.238221 -11.630071 0.000000 0.000003 0.000000 -0.000001 0.000000 -0.000000 9.671270 -3.903229 -0.190387 4.983735 1.028245 1.361612 5.018543 0.907064 0.976026 1.991970 -5.334902 -0.780076 -15.278764 -1.918787 -0.562032 0.000000 -0.000000 -0.000000 0.000000 -0.000000 -0.000000 0.000000 -0.000000 -0.000000 0.000000 -0.000000 -0.000000 -0.000001 0.000000 0.000000 0.000000 -0.000000 -0.000000 -0.000001 0.000000 0.000000 0.000000 -0.000000 -0.000000 0.000000 -0.000000 -0.000000 12.091073 -19.839584 2.413726 -6.292375 10.423329 -68.252434 -98.899602 -17.591622 -94.167763 -52.274498 3.112934 -13.903484 0.699117 9.503413 -2.418101 5.975198 12.647543 1.348345 -0.000000 -0.000000 -0.000000 9.479716 -1.289760 -20.785562 0.709468 2.796417 -28.467124 0.000002 0.000001 -0.000002 10.058163 -1.800565 -20.644725 1.774256 4.200478 -45.782075 -0.000001 0.000001 0.000002 1.254237 -0.073740 -17.945769 3.754070 5.463584 -68.965294 -0.000000 -0.000000 -0.000002 -7.938252 1.609107 -6.495676 2.210584 4.583664 -51.475154 -0.000001 -0.000002 -0.000001 0.000001 0.000000 0.000000 7.135328 10.271640 -0.158721 35.564693 37.567427 19.048921 49.909528 116.165235 -73.061489 -26.163617 23.447677 34.435679 13.942507 -4.273707 -5.300369 7.113161 -20.767506 -2.619488 -0.000000 -0.000001 0.000002 0.357809 -5.832716 5.175850 0.094385 -0.933636 11.539848 0.000000 0.000000 0.000000 3.764139 -12.080525 1.143771 5.714268 -4.535860 103.133466 -0.000002 0.000000 -0.000001 -12.155580 -12.623918 9.228360 6.566898 -4.248399 114.232339 -0.000001 0.000003 -0.000003 -17.635758 -10.496847 3.325418 4.993661 -4.645026 94.147922 -0.000001 0.000003 0.000001 0.000001 -0.000002 0.000000 0.000001 0.000001 -0.000000 0.000001 0.000000 0.000000 0.000001 0.000001 -0.000000 0.000001 0.000001 -0.000000 0.000001 0.000001 -0.000000 0.000001 0.000000 0.000000 0.000001 0.000001 -0.000000 0.000001 0.000001 -0.000000 0.000001 0.000001 -0.000000 0.000001 0.000000 0.000000 0.000001 -0.000001 -0.000000 0.000001 -0.000001 -0.000000 0.000001 -0.000001 -0.000000 
12.478264 63.890656 13.395121 5.747721 11.234863 -2.017887 -0.000000 0.000000 -0.000000 -66.760878 2.540630 24.430204 113.571122 -11.085770 -10.452229 28.255922 3.931752 9.958490 0.000000 -0.000000 -0.000001 0.000002 -0.000000 -0.000004 -7.959911 -3.943656 -0.769122 46.480967 22.098452 -6.771922 -41.359111 2.253202 -8.616678 0.000000 -0.000001 0.000000 -0.000000 -0.000000 -0.000000 8.955807 -1.073545 -4.220813 4.835624 5.085404 0.932451 4.986313 5.124473 0.475743 1.642112 -6.081245 -0.824102 -13.623004 -11.116402 -1.174537 0.000000 0.000000 0.000000 0.000000 0.000000 0.000000 0.000000 0.000000 0.000000 0.000000 0.000000 0.000000 0.000000 0.000000 0.000000 0.000000 0.000000 0.000000 0.000000 0.000000 0.000000 0.000000 0.000000 0.000000 0.000000 0.000000 0.000000 11.193379 -20.010383 2.277569 -13.038864 16.733473 -64.617046 -97.731415 -17.836018 -90.330522 -52.641894 10.249380 -11.415578 0.699120 9.503416 -2.418101 5.975197 12.647543 1.348344 0.000000 -0.000000 0.000001 9.479717 -1.289757 -20.785562 0.709468 2.796417 -28.467117 0.000001 0.000000 -0.000000 10.058166 -1.800564 -20.644725 1.774256 4.200476 -45.782078 -0.000001 0.000002 0.000004 1.254236 -0.073742 -17.945772 3.754070 5.463586 -68.965294 -0.000001 -0.000002 0.000001 -7.938253 1.609108 -6.495672 2.210582 4.583665 -51.475164 0.000001 -0.000002 0.000001 0.000003 0.000000 -0.000002 8.515491 13.702493 -0.726371 30.827946 41.741379 18.944103 53.776436 114.644903 -77.468846 -24.383885 24.063383 29.017389 13.942505 -4.273707 -5.300370 7.113163 -20.767504 -2.619487 -0.000000 -0.000001 0.000001 0.357811 -5.832718 5.175852 0.094388 -0.933638 11.539847 0.000001 -0.000001 -0.000002 3.764140 -12.080527 1.143770 5.714268 -4.535859 103.133466 0.000000 -0.000001 -0.000001 -12.155579 -12.623917 9.228359 6.566898 -4.248400 114.232339 0.000000 0.000001 -0.000002 -17.635757 -10.496847 3.325418 4.993665 -4.645026 94.147922 -0.000001 0.000002 -0.000001 0.000000 0.000003 0.000000 -0.000000 0.000001 0.000000 0.000001 0.000001 -0.000001 -0.000000 0.000001 -0.000001 -0.000000 0.000001 -0.000001 -0.000000 0.000001 0.000000 0.000001 0.000001 -0.000000 -0.000000 0.000001 -0.000001 -0.000000 0.000001 -0.000001 -0.000000 0.000001 0.000000 0.000001 0.000001 -0.000000 -0.000000 0.000000 -0.000000 -0.000000 0.000000 -0.000000 -0.000000 0.000000 -0.000000 
24.830278 65.071938 25.266396 7.689431 11.340437 1.837694 0.000001 0.000000 0.000000 -76.482116 0.515130 21.191895 95.734151 -3.605869 -9.216445 19.036741 -0.274347 -7.142030 0.000001 -0.000001 0.000001 0.000001 -0.000001 0.000000 0.665223 -4.266227 -13.785624 42.630568 20.728540 -7.081711 -27.631699 8.742333 -5.284618 0.000002 0.000002 -0.000001 -0.000000 -0.000001 -0.000000 8.854315 0.138678 -7.418466 5.066854 7.704990 -0.325895 5.334051 7.991333 -0.640497 1.340668 -6.733626 -0.669130 -14.329636 -19.117042 -1.833194 0.000000 -0.000000 0.000000 0.000000 -0.000000 0.000000 0.000000 -0.000000 0.000001 0.000000 -0.000000 0.000000 0.000000 0.000000 0.000000 0.000000 -0.000000 0.000000 0.000000 0.000000 0.000000 0.000000 -0.000000 0.000000 0.000000 -0.000000 0.000000 10.442299 -20.430986 2.215211 -19.662299 18.563296 -60.254515 -96.693274 -18.045268 -86.941731 -53.652348 14.118292 -10.903294 0.699118 9.503412 -2.418103 5.975198 12.647544 1.348345 -0.000000 0.000001 0.000000 9.479716 -1.289758 -20.785557 0.709467 2.796413 -28.467117 -0.000000 0.000001 -0.000002 10.058166 -1.800564 -20.644721 1.774255 4.200476 -45.782082 0.000001 0.000002 0.000003 1.254235 -0.073743 -17.945771 3.754071 5.463584 -68.965294 0.000001 0.000000 0.000001 -7.938256 1.609102 -6.495673 2.210585 4.583665 -51.475154 -0.000000 0.000001 0.000001 0.000001 0.000002 -0.000003 9.513192 16.853842 -1.372703 24.488255 42.628508 21.570274 55.726759 113.930581 -79.657833 -21.843346 24.289268 26.067781 13.942508 -4.273708 -5.300370 7.113162 -20.767504 -2.619488 -0.000000 -0.000001 0.000000 0.357812 -5.832713 5.175849 0.094386 -0.933637 11.539850 -0.000001 0.000001 -0.000001 3.764141 -12.080525 1.143770 5.714270 -4.535859 103.133466 0.000000 -0.000001 -0.000001 -12.155577 -12.623918 9.228357 6.566896 -4.248401 114.232339 0.000002 -0.000001 -0.000002 -17.635753 -10.496846 3.325416 4.993663 -4.645025 94.147922 0.000000 0.000002 -0.000001 0.000000 0.000001 0.000001 -0.000001 -0.000000 0.000001 0.000000 -0.000001 -0.000001 -0.000001 -0.000000 0.000001 -0.000001 -0.000000 0.000001 -0.000001 -0.000000 0.000001 0.000000 -0.000001 -0.000001 -0.000001 -0.000000 0.000001 -0.000001 -0.000000 0.000001 -0.000001 -0.000000 0.000001 0.000000 -0.000001 -0.000001 0.000001 0.000000 0.000000 0.000001 0.000000 0.000000 0.000001 0.000000 0.000000 
36.383633 66.590103 36.764133 9.791389 16.905463 3.189200 -0.000001 -0.000001 -0.000000 -73.390772 3.007985 14.933013 67.672346 5.841885 -8.076134 2.153896 1.958366 -10.015553 0.000000 0.000000 0.000000 -0.000001 -0.000000 -0.000001 2.104462 -8.931373 -17.103772 40.517573 25.780315 -9.001619 25.947653 3.476073 -10.487072 0.000000 0.000001 -0.000000 -0.000001 0.000000 -0.000001 9.880567 -0.594213 -7.512202 5.435500 6.940690 -1.078345 5.641535 7.154213 -1.110916 1.054040 -7.180489 -0.262915 -16.843936 -22.193163 -2.921872 0.000001 -0.000000 0.000000 0.000001 -0.000000 0.000000 0.000001 -0.000000 0.000001 0.000001 -0.000000 0.000001 0.000001 0.000000 0.000001 0.000001 -0.000000 0.000001 0.000001 0.000000 0.000001 0.000001 -0.000000 0.000000 0.000001 -0.000000 0.000000 9.862681 -21.284690 2.260754 -13.677742 22.198899 -60.154528 -99.823461 -16.792223 -97.547819 -53.558314 7.863593 -12.618377 0.699119 9.503409 -2.418102 5.975198 12.647541 1.348345 0.000000 -0.000001 -0.000000 9.479715 -1.289763 -20.785558 0.709469 2.796415 -28.467115 0.000002 0.000002 0.000004 10.058165 -1.800565 -20.644723 1.774254 4.200480 -45.782075 0.000002 -0.000000 -0.000001 1.254237 -0.073745 -17.945772 3.754070 5.463582 -68.965294 0.000001 -0.000001 -0.000001 -7.938253 1.609103 -6.495673 2.210582 4.583657 -51.475164 -0.000000 -0.000000 0.000003 0.000001 0.000000 0.000002 9.463773 18.845501 -1.726450 19.273836 39.412124 26.641059 51.663175 115.289645 -75.089017 -19.887064 24.096359 32.148293 13.942506 -4.273704 -5.300370 7.113161 -20.767503 -2.619488 -0.000000 -0.000001 0.000000 0.357813 -5.832715 5.175852 0.094387 -0.933636 11.539857 -0.000000 -0.000000 -0.000002 3.764141 -12.080522 1.143771 5.714269 -4.535859 103.133466 0.000001 -0.000000 0.000001 -12.155575 -12.623916 9.228361 6.566896 -4.248399 114.232339 0.000003 0.000003 0.000002 -17.635757 -10.496846 3.325418 4.993662 -4.645025 94.147922 -0.000000 0.000004 -0.000001 -0.000000 -0.000000 0.000000 -0.000002 -0.000003 0.000000 -0.000001 0.000001 -0.000001 -0.000002 -0.000003 0.000001 -0.000002 -0.000003 0.000001 -0.000002 -0.000003 0.000000 -0.000001 0.000001 -0.000000 -0.000002 -0.000003 0.000001 -0.000002 -0.000003 0.000001 -0.000002 -0.000003 0.000000 -0.000001 0.000001 -0.000000 -0.000001 -0.000001 -0.000000 -0.000001 -0.000001 -0.000000 -0.000001 -0.000001 -0.000000 
